<svg width="169" height="26" viewBox="0 0 169 26" fill="none" xmlns="http://www.w3.org/2000/svg">
<path d="M0.953125 25V22.4375L3.40625 21.9688V5.29688L0.953125 4.82812V2.25H18.8594V8.3125H15.5781L15.3438 5.53125H7.65625V12.1406H15.7031V15.4219H7.65625V21.9688L10.1094 22.4375V25H0.953125ZM25.8594 25.3281C24.1615 25.3281 22.8229 24.8854 21.8438 24C20.875 23.1042 20.3906 21.8802 20.3906 20.3281C20.3906 19.2656 20.6771 18.3333 21.25 17.5312C21.8333 16.7188 22.6875 16.0885 23.8125 15.6406C24.9479 15.1823 26.3281 14.9531 27.9531 14.9531H30.3594V13.625C30.3594 12.7708 30.1042 12.0833 29.5938 11.5625C29.0938 11.0417 28.3542 10.7812 27.375 10.7812C26.8438 10.7812 26.3646 10.849 25.9375 10.9844C25.5208 11.1094 25.1458 11.2917 24.8125 11.5312L24.4531 13.7969H21.3594L21.3281 9.51562C22.1823 8.99479 23.1198 8.57812 24.1406 8.26562C25.1719 7.94271 26.3177 7.78125 27.5781 7.78125C29.7552 7.78125 31.4688 8.29167 32.7188 9.3125C33.9792 10.3229 34.6094 11.776 34.6094 13.6719V20.875C34.6094 21.1042 34.6094 21.3281 34.6094 21.5469C34.6198 21.7656 34.6406 21.9792 34.6719 22.1875L36.4062 22.4375V25H31.0156C30.901 24.6771 30.7917 24.349 30.6875 24.0156C30.5938 23.6719 30.526 23.3281 30.4844 22.9844C29.9323 23.6823 29.2708 24.25 28.5 24.6875C27.7396 25.1146 26.8594 25.3281 25.8594 25.3281ZM26.9062 22.125C27.625 22.125 28.2969 21.9583 28.9219 21.625C29.5573 21.2917 30.0365 20.8698 30.3594 20.3594V17.6094H27.9375C26.8438 17.6094 26.0156 17.8646 25.4531 18.375C24.901 18.875 24.625 19.4688 24.625 20.1562C24.625 20.7812 24.8229 21.2656 25.2188 21.6094C25.6146 21.9531 26.1771 22.125 26.9062 22.125ZM44.2656 25.3125C42.7656 25.3125 41.599 24.8958 40.7656 24.0625C39.9427 23.2188 39.5312 21.8854 39.5312 20.0625V11.1094H37.1406V8.09375H39.5312V3.96875H43.7656V8.09375H47V11.1094H43.7656V20.0625C43.7656 20.75 43.9115 21.2448 44.2031 21.5469C44.4948 21.849 44.8854 22 45.375 22C45.6458 22 45.9427 21.9792 46.2656 21.9375C46.5885 21.8958 46.8594 21.8542 47.0781 21.8125L47.4844 24.8281C47.0156 24.9635 46.4948 25.0781 45.9219 25.1719C45.3594 25.2656 44.8073 25.3125 44.2656 25.3125ZM56.875 25.3281C55.2708 25.3281 53.8698 24.974 52.6719 24.2656C51.4844 23.5469 50.5625 22.5625 49.9062 21.3125C49.25 20.0521 48.9219 18.6146 48.9219 17V16.3594C48.9219 14.7031 49.2344 13.2292 49.8594 11.9375C50.4948 10.6354 51.3802 9.61979 52.5156 8.89062C53.651 8.15104 54.9635 7.78125 56.4531 7.78125C57.9844 7.78125 59.2708 8.08854 60.3125 8.70312C61.3542 9.30729 62.1406 10.1771 62.6719 11.3125C63.2031 12.4479 63.4688 13.8125 63.4688 15.4062V17.7656H53.3281L53.2969 17.8594C53.3385 18.6719 53.5208 19.3958 53.8438 20.0312C54.1667 20.6562 54.6198 21.151 55.2031 21.5156C55.7865 21.8802 56.4948 22.0625 57.3281 22.0625C58.2135 22.0625 59.0208 21.9479 59.75 21.7188C60.4896 21.4896 61.1927 21.151 61.8594 20.7031L63.0781 23.3438C62.401 23.9062 61.5417 24.3802 60.5 24.7656C59.4583 25.1406 58.25 25.3281 56.875 25.3281ZM53.375 14.875H59.4688V14.4688C59.4688 13.7604 59.3646 13.1458 59.1562 12.625C58.9479 12.0938 58.625 11.6823 58.1875 11.3906C57.7604 11.099 57.2031 10.9531 56.5156 10.9531C55.8906 10.9531 55.3542 11.125 54.9062 11.4688C54.4583 11.8021 54.1042 12.2604 53.8438 12.8438C53.5833 13.4167 53.4115 14.0677 53.3281 14.7969L53.375 14.875ZM73.6562 25.3281C72.0521 25.3281 70.6615 24.9688 69.4844 24.25C68.3177 23.5208 67.4167 22.5156 66.7812 21.2344C66.1458 19.9531 65.8281 18.4792 65.8281 16.8125V16.2969C65.8281 14.651 66.1458 13.1875 66.7812 11.9062C67.4271 10.625 68.3333 9.61979 69.5 8.89062C70.6667 8.15104 72.0417 7.78125 73.625 7.78125C75.1146 7.78125 76.401 8.01562 77.4844 8.48438C78.5781 8.95312 79.4635 9.51562 80.1406 10.1719V14.8594H76.9219L76.3281 11.8438C76.0573 11.5729 75.7135 11.3542 75.2969 11.1875C74.8802 11.0208 74.4375 10.9375 73.9688 10.9375C73.125 10.9375 72.4115 11.1615 71.8281 11.6094C71.2552 12.0469 70.8177 12.6667 70.5156 13.4688C70.224 14.2604 70.0781 15.2031 70.0781 16.2969V16.8125C70.0781 17.9896 70.2344 18.9688 70.5469 19.75C70.8594 20.5208 71.2865 21.099 71.8281 21.4844C72.3802 21.8698 72.9948 22.0625 73.6719 22.0625C74.526 22.0625 75.2188 21.8385 75.75 21.3906C76.2812 20.9323 76.6354 20.2917 76.8125 19.4688H80.4531L80.5 19.5625C80.3542 20.7083 80.0156 21.7188 79.4844 22.5938C78.9635 23.4583 78.224 24.1302 77.2656 24.6094C76.3177 25.0885 75.1146 25.3281 73.6562 25.3281ZM90.4531 25V22.4375L92.9062 21.9688V5.29688L90.4531 4.82812V2.25H92.9062H100.5C103.115 2.25 105.156 2.77083 106.625 3.8125C108.094 4.84375 108.828 6.39583 108.828 8.46875C108.828 9.51042 108.536 10.4427 107.953 11.2656C107.38 12.0885 106.568 12.7031 105.516 13.1094C106.422 13.3073 107.182 13.6615 107.797 14.1719C108.411 14.6823 108.875 15.3021 109.188 16.0312C109.51 16.7604 109.672 17.5573 109.672 18.4219C109.672 20.5781 108.958 22.2135 107.531 23.3281C106.115 24.4427 104.125 25 101.562 25H90.4531ZM97.1562 21.7344H101.562C102.812 21.7344 103.766 21.4531 104.422 20.8906C105.089 20.3281 105.422 19.5052 105.422 18.4219C105.422 17.651 105.297 17 105.047 16.4688C104.807 15.9271 104.427 15.5156 103.906 15.2344C103.396 14.9531 102.74 14.8125 101.938 14.8125H97.1562V21.7344ZM97.1562 11.8125H100.797C101.995 11.8125 102.922 11.5469 103.578 11.0156C104.245 10.4844 104.578 9.72396 104.578 8.73438C104.578 7.64062 104.234 6.83333 103.547 6.3125C102.859 5.79167 101.844 5.53125 100.5 5.53125H97.1562V11.8125ZM117.078 25.3281C115.38 25.3281 114.042 24.8854 113.062 24C112.094 23.1042 111.609 21.8802 111.609 20.3281C111.609 19.2656 111.896 18.3333 112.469 17.5312C113.052 16.7188 113.906 16.0885 115.031 15.6406C116.167 15.1823 117.547 14.9531 119.172 14.9531H121.578V13.625C121.578 12.7708 121.323 12.0833 120.812 11.5625C120.312 11.0417 119.573 10.7812 118.594 10.7812C118.062 10.7812 117.583 10.849 117.156 10.9844C116.74 11.1094 116.365 11.2917 116.031 11.5312L115.672 13.7969H112.578L112.547 9.51562C113.401 8.99479 114.339 8.57812 115.359 8.26562C116.391 7.94271 117.536 7.78125 118.797 7.78125C120.974 7.78125 122.688 8.29167 123.938 9.3125C125.198 10.3229 125.828 11.776 125.828 13.6719V20.875C125.828 21.1042 125.828 21.3281 125.828 21.5469C125.839 21.7656 125.859 21.9792 125.891 22.1875L127.625 22.4375V25H122.234C122.12 24.6771 122.01 24.349 121.906 24.0156C121.812 23.6719 121.745 23.3281 121.703 22.9844C121.151 23.6823 120.49 24.25 119.719 24.6875C118.958 25.1146 118.078 25.3281 117.078 25.3281ZM118.125 22.125C118.844 22.125 119.516 21.9583 120.141 21.625C120.776 21.2917 121.255 20.8698 121.578 20.3594V17.6094H119.156C118.062 17.6094 117.234 17.8646 116.672 18.375C116.12 18.875 115.844 19.4688 115.844 20.1562C115.844 20.7812 116.042 21.2656 116.438 21.6094C116.833 21.9531 117.396 22.125 118.125 22.125ZM129.281 25V22.4375L131.547 21.9688V11.1406L129.109 10.6719V8.09375H135.484L135.688 10.5312C136.25 9.66667 136.948 8.99479 137.781 8.51562C138.625 8.02604 139.578 7.78125 140.641 7.78125C142.339 7.78125 143.667 8.31771 144.625 9.39062C145.594 10.4531 146.078 12.125 146.078 14.4062V21.9688L148.344 22.4375V25H139.734V22.4375L141.812 21.9688V14.4375C141.812 13.2292 141.573 12.375 141.094 11.875C140.615 11.3646 139.901 11.1094 138.953 11.1094C138.245 11.1094 137.625 11.2656 137.094 11.5781C136.573 11.8802 136.141 12.3125 135.797 12.875V21.9688L137.797 22.4375V25H129.281ZM149.75 25V22.4375L152.031 21.9688V3.67188L149.578 3.20312V0.625H156.266V21.9688L158.359 22.4375V25H149.75ZM160.531 25V22.5312L161.922 22.25L161.891 22.1875L158.203 17.2812L160.844 14.4062L166.656 21.9688L168.828 22.4375V25H160.531ZM155.844 20.3281L153.875 17.7969L161.219 10.9531L161.266 10.8906L159.516 10.6562V8.09375H167.984V10.6719L165.812 11.2031L155.844 20.3281Z" fill="white"/>
</svg>
