<svg width="286" height="320" viewBox="0 0 286 320" fill="none" xmlns="http://www.w3.org/2000/svg">
<path d="M213.706 30.5647H147.969C145.818 30.5622 143.757 29.7091 142.237 28.1927C140.717 26.6762 139.861 24.6202 139.859 22.4756V0.222168H135.763V22.4756C135.767 25.7034 137.054 28.7979 139.342 31.0803C141.63 33.3627 144.733 34.6465 147.969 34.65H213.706C215.857 34.65 217.92 35.5023 219.441 37.0193C220.962 38.5363 221.816 40.5937 221.816 42.7391C221.816 44.8844 220.962 46.9419 219.441 48.4589C217.92 49.9759 215.857 50.8281 213.706 50.8281H50.8979C47.6608 50.8281 44.5563 52.1108 42.2673 54.3939C39.9783 56.6771 38.6924 59.7737 38.6924 63.0026C38.6924 66.2314 39.9783 69.328 42.2673 71.6112C44.5563 73.8943 47.6608 75.177 50.8979 75.177H127.694C129.844 75.1794 131.906 76.0324 133.426 77.5488C134.946 79.0653 135.802 81.1214 135.804 83.266V104.173H129.541V108.305H126.86V112.688H129.541V116.569H126.86V120.952H129.541V124.833H126.86V129.215H129.541V132.67H145.817V129.218H148.498V124.834H145.817V120.952H148.498V116.569H145.817V112.688H148.498V108.305H145.817V104.173H139.9V83.266C139.896 80.0383 138.609 76.9438 136.321 74.6615C134.033 72.3791 130.93 71.0953 127.694 71.0916H50.8979C48.7471 71.0916 46.6843 70.2394 45.1635 68.7224C43.6426 67.2054 42.7882 65.1479 42.7882 63.0026C42.7882 60.8572 43.6426 58.7997 45.1635 57.2827C46.6843 55.7658 48.7471 54.9135 50.8979 54.9135H213.706C215.309 54.9135 216.896 54.5986 218.377 53.9868C219.858 53.375 221.203 52.4782 222.337 51.3477C223.47 50.2172 224.369 48.8751 224.983 47.398C225.596 45.921 225.912 44.3379 225.912 42.7391C225.912 41.1403 225.596 39.5572 224.983 38.0801C224.369 36.6031 223.47 35.261 222.337 34.1305C221.203 33 219.858 32.1032 218.377 31.4914C216.896 30.8796 215.309 30.5647 213.706 30.5647Z" fill="#05456B"/>
<path d="M276.101 211.39C255.849 173.574 196.655 156.625 143 156.624C89.3474 156.624 30.1519 173.574 9.90019 211.39C-8.99951 246.682 13.9014 296.187 42.7326 314.03C60.8991 325.273 75.2324 320.427 83.1766 301.255C90.1002 284.544 117.143 275.295 143 275.295C168.857 275.295 195.9 284.544 202.825 301.255C210.77 320.427 225.102 325.273 243.269 314.03C272.1 296.187 295.001 246.682 276.101 211.39Z" fill="#05456B"/>
<path d="M276.101 183.846C255.849 146.029 196.655 129.081 143 129.081C89.3449 129.081 30.1507 146.029 9.89897 183.846C-9.00073 219.138 13.9002 268.643 42.7314 286.485C60.8979 297.728 75.2312 292.881 83.1754 273.71C90.1002 257.001 117.143 247.749 143 247.749C168.857 247.749 195.9 256.999 202.825 273.71C210.77 292.881 225.102 297.728 243.269 286.485C272.1 268.643 295.001 219.138 276.101 183.846Z" fill="#EF4923"/>
<path d="M276.101 183.846C255.849 146.029 196.655 129.081 143 129.081C89.3449 129.081 30.1507 146.029 9.89897 183.846C-9.00073 219.138 13.9002 268.643 42.7314 286.485C60.8979 297.728 75.2312 292.881 83.1754 273.71C90.1002 257.001 117.143 247.749 143 247.749C168.857 247.749 195.9 256.999 202.825 273.71C210.77 292.881 225.102 297.728 243.269 286.485C272.1 268.643 295.001 219.138 276.101 183.846Z" fill="#EF4923"/>
<path d="M276.101 183.846C255.849 146.029 196.655 129.081 143 129.081C89.3449 129.081 30.1507 146.029 9.89897 183.846C-9.00073 219.138 13.9002 268.643 42.7314 286.485C60.8979 297.728 75.2312 292.881 83.1754 273.71C90.1002 257.001 117.143 247.749 143 247.749C168.857 247.749 195.9 256.999 202.825 273.71C210.77 292.881 225.102 297.728 243.269 286.485C272.1 268.643 295.001 219.138 276.101 183.846Z" fill="#EF4923"/>
<path d="M276.101 183.846C255.849 146.029 196.655 129.081 143 129.081C89.3449 129.081 30.1507 146.029 9.89897 183.846C-9.00073 219.138 13.9002 268.643 42.7314 286.485C60.8979 297.728 75.2312 292.881 83.1754 273.71C90.1002 257.001 117.143 247.749 143 247.749C168.857 247.749 195.9 256.999 202.825 273.71C210.77 292.881 225.102 297.728 243.269 286.485C272.1 268.643 295.001 219.138 276.101 183.846Z" fill="#EE4823" stroke="white" stroke-miterlimit="10"/>
<path d="M276.101 183.846C255.849 146.029 196.655 129.081 143 129.081C89.3449 129.081 30.1507 146.029 9.89897 183.846C-9.00073 219.138 13.9002 268.643 42.7314 286.485C60.8979 297.728 75.2312 292.881 83.1754 273.71C90.1002 257.001 117.143 247.749 143 247.749C168.857 247.749 195.9 256.999 202.825 273.71C210.77 292.881 225.102 297.728 243.269 286.485C272.1 268.643 295.001 219.138 276.101 183.846Z" fill="#EE4823"/>
<path d="M207.923 158.707L187.724 166.764C184.615 168.004 183.102 171.524 184.345 174.626C185.589 177.727 189.118 179.236 192.227 177.996L212.426 169.939C215.536 168.699 217.048 165.179 215.805 162.077C214.562 158.976 211.033 157.467 207.923 158.707Z" fill="#DE1E26"/>
<path d="M62.809 247.623C87.2607 247.623 107.083 227.851 107.083 203.462C107.083 179.073 87.2607 159.301 62.809 159.301C38.3574 159.301 18.5354 179.073 18.5354 203.462C18.5354 227.851 38.3574 247.623 62.809 247.623Z" fill="#DE1E26"/>
<path d="M143 138.159C193.85 138.159 249.376 152.458 276.176 183.997C276.15 183.947 276.126 183.897 276.1 183.847C255.849 146.029 196.655 129.081 143 129.081C89.3451 129.081 30.1508 146.029 9.89911 183.846C9.87289 183.895 9.84872 183.946 9.82251 183.996C36.6226 152.458 92.1482 138.16 143 138.159Z" fill="#F48551"/>
<path d="M276.643 184.9C277.921 197.832 279.917 213.175 256.866 224.812C239.767 233.444 226.967 236.313 217.309 242.309C195.406 255.914 183.739 249.485 167.412 229.312C160.507 229.312 109.885 229.783 100.738 229.312C82.7198 262.535 43.8756 257.746 27.3265 240.59C9.63259 222.247 7.5384 196.468 9.35735 184.9C-8.53969 220.118 14.1871 268.82 42.7316 286.485C60.8982 297.727 75.2315 292.881 83.1757 273.71C90.1005 257.001 117.143 247.749 143 247.749C168.857 247.749 195.9 256.999 202.825 273.71C210.771 292.881 225.102 297.727 243.269 286.485C271.813 268.82 294.54 220.118 276.643 184.9Z" fill="#DE1E26"/>
<path d="M143 133.983C194.09 133.983 250.041 148.85 274.916 181.746C253.63 145.403 195.649 129.081 143 129.081C90.3518 129.081 32.372 145.403 11.0828 181.746C35.957 148.848 91.9078 133.984 143 133.983Z" fill="#282522"/>
<path d="M276.101 183.846C255.849 146.029 196.655 129.081 143 129.081C89.3449 129.081 30.1507 146.029 9.89897 183.846C-9.00073 219.138 13.9002 268.643 42.7314 286.485C60.8979 297.728 75.2312 292.881 83.1754 273.71C90.1002 257.001 117.143 247.749 143 247.749C168.857 247.749 195.9 256.999 202.825 273.71C210.77 292.881 225.102 297.728 243.269 286.485C272.1 268.643 295.001 219.138 276.101 183.846Z" stroke="#282522" stroke-width="6" stroke-miterlimit="10"/>
<path d="M62.3359 250.667C86.4738 250.667 106.041 231.149 106.041 207.073C106.041 182.996 86.4738 163.478 62.3359 163.478C38.198 163.478 18.6304 182.996 18.6304 207.073C18.6304 231.149 38.198 250.667 62.3359 250.667Z" fill="#DE1E26"/>
<path d="M60.3773 166.409C68.1319 166.411 75.7465 168.47 82.44 172.375C89.1336 176.281 94.6652 181.892 98.4674 188.633C102.27 195.374 104.206 203.003 104.077 210.737C103.948 218.471 101.759 226.031 97.7343 232.643C101.189 227.886 103.644 222.481 104.953 216.754C106.262 211.027 106.396 205.095 105.349 199.314C104.302 193.534 102.095 188.024 98.8594 183.116C95.6241 178.208 91.4279 174.002 86.5225 170.752C81.6171 167.502 76.1039 165.274 70.3137 164.202C64.5235 163.13 58.5759 163.236 52.8279 164.514C47.0799 165.792 41.6501 168.215 36.8645 171.639C32.0789 175.062 28.0363 179.415 24.9792 184.435C29.0277 178.85 34.3478 174.304 40.5018 171.17C46.6557 168.036 53.4677 166.405 60.3773 166.409Z" fill="#F48551"/>
<path d="M187.541 151.025C172.859 148.236 157.946 146.838 143 146.848C127.218 146.833 111.473 148.396 96.0029 151.513" stroke="#DE1E26" stroke-width="12" stroke-miterlimit="10" stroke-linecap="round"/>
<path d="M62.336 241.861C81.5981 241.861 97.213 226.286 97.213 207.073C97.213 187.86 81.5981 172.284 62.336 172.284C43.074 172.284 27.459 187.86 27.459 207.073C27.459 226.286 43.074 241.861 62.336 241.861Z" fill="#EE4823"/>
<path d="M62.3359 233.909C77.1951 233.909 89.2408 221.894 89.2408 207.073C89.2408 192.251 77.1951 180.236 62.3359 180.236C47.4767 180.236 35.4309 192.251 35.4309 207.073C35.4309 221.894 47.4767 233.909 62.3359 233.909Z" fill="#282522"/>
<path d="M62.3359 233.909C77.1951 233.909 89.2408 221.894 89.2408 207.073C89.2408 192.251 77.1951 180.236 62.3359 180.236C47.4767 180.236 35.4309 192.251 35.4309 207.073C35.4309 221.894 47.4767 233.909 62.3359 233.909Z" stroke="#282522" stroke-width="6" stroke-miterlimit="10"/>
<path d="M68.0668 185.986C68.0688 184.963 67.6845 183.976 66.9904 183.223C66.2963 182.469 65.3432 182.004 64.3208 181.919C63.6654 181.867 63.0038 181.84 62.3359 181.84C61.668 181.839 61.0066 181.865 60.3515 181.919C59.329 182.003 58.376 182.469 57.682 183.223C56.9879 183.976 56.6036 184.963 56.6055 185.986V192.852C56.6055 195.108 55.7072 197.271 54.1082 198.866C52.5092 200.461 50.3405 201.357 48.0792 201.357H41.1958C40.1698 201.355 39.1807 201.738 38.4251 202.431C37.6695 203.123 37.2027 204.073 37.1176 205.093C37.0658 205.747 37.0394 206.407 37.0386 207.073C37.0378 207.739 37.0641 208.398 37.1176 209.052C37.2027 210.072 37.6695 211.023 38.4251 211.715C39.1807 212.407 40.1698 212.791 41.1958 212.789H48.0792C50.3405 212.789 52.5092 213.685 54.1082 215.28C55.7072 216.875 56.6055 219.038 56.6055 221.293V228.159C56.6036 229.183 56.9879 230.169 57.682 230.923C58.376 231.677 59.329 232.142 60.3515 232.227C61.0068 232.279 61.6683 232.305 62.3359 232.306C63.0036 232.307 63.6652 232.281 64.3208 232.227C65.3432 232.142 66.2962 231.677 66.9903 230.923C67.6844 230.169 68.0687 229.183 68.0668 228.159V221.293C68.0668 219.038 68.9651 216.875 70.5641 215.28C72.163 213.685 74.3317 212.789 76.593 212.789H83.4764C84.5024 212.791 85.4916 212.408 86.2471 211.715C87.0027 211.023 87.4693 210.072 87.5542 209.052C87.6066 208.399 87.633 207.739 87.6333 207.073C87.6336 206.406 87.6072 205.747 87.5542 205.093C87.4693 204.073 87.0027 203.123 86.2471 202.43C85.4916 201.738 84.5024 201.355 83.4764 201.357H76.593C74.3317 201.357 72.163 200.461 70.5641 198.866C68.9651 197.271 68.0668 195.108 68.0668 192.852V185.986Z" fill="#0D1622"/>
<path d="M62.3359 250.667C86.4738 250.667 106.041 231.149 106.041 207.073C106.041 182.996 86.4738 163.478 62.3359 163.478C38.198 163.478 18.6304 182.996 18.6304 207.073C18.6304 231.149 38.198 250.667 62.3359 250.667Z" stroke="#282522" stroke-width="6" stroke-miterlimit="10"/>
<path d="M62.3361 215.581C67.047 215.581 70.866 211.772 70.866 207.073C70.866 202.374 67.047 198.564 62.3361 198.564C57.6251 198.564 53.8062 202.374 53.8062 207.073C53.8062 211.772 57.6251 215.581 62.3361 215.581Z" fill="#EE4823"/>
<path d="M57.9001 209.484C57.4803 208.717 57.268 207.854 57.284 206.98C57.3 206.105 57.5438 205.251 57.9913 204.499C58.4388 203.747 59.0747 203.125 59.8365 202.692C60.5983 202.26 61.4598 202.033 62.3362 202.033" stroke="#282522" stroke-width="4" stroke-miterlimit="10" stroke-linecap="round"/>
<path d="M69.207 202.046C70.0142 203.967 70.0866 206.116 69.4104 208.087C68.7343 210.057 67.3567 211.712 65.5389 212.736C63.721 213.761 61.5895 214.084 59.5484 213.645C57.5074 213.206 55.6989 212.035 54.4658 210.355C54.9293 211.465 55.6236 212.465 56.5028 213.288C57.3821 214.111 58.4265 214.739 59.5668 215.13C60.7072 215.52 61.9178 215.666 63.1185 215.555C64.3193 215.445 65.483 215.082 66.5328 214.491C67.5826 213.899 68.4947 213.092 69.2088 212.123C69.9229 211.154 70.4229 210.044 70.6756 208.868C70.9283 207.692 70.9281 206.476 70.675 205.3C70.4218 204.124 69.9215 203.015 69.207 202.046Z" fill="#DE1E26"/>
<path d="M89.7743 180.581C90.2581 180.581 90.6502 180.19 90.6502 179.707C90.6502 179.225 90.2581 178.834 89.7743 178.834C89.2906 178.834 88.8984 179.225 88.8984 179.707C88.8984 180.19 89.2906 180.581 89.7743 180.581Z" fill="#F48551"/>
<path d="M34.8986 235.317C35.3824 235.317 35.7745 234.926 35.7745 234.444C35.7745 233.961 35.3824 233.57 34.8986 233.57C34.4149 233.57 34.0227 233.961 34.0227 234.444C34.0227 234.926 34.4149 235.317 34.8986 235.317Z" fill="#F48551"/>
<path d="M89.7743 235.317C90.2581 235.317 90.6502 234.926 90.6502 234.444C90.6502 233.961 90.2581 233.57 89.7743 233.57C89.2906 233.57 88.8984 233.961 88.8984 234.444C88.8984 234.926 89.2906 235.317 89.7743 235.317Z" fill="#F48551"/>
<path d="M34.8986 180.581C35.3824 180.581 35.7745 180.19 35.7745 179.707C35.7745 179.225 35.3824 178.834 34.8986 178.834C34.4149 178.834 34.0227 179.225 34.0227 179.707C34.0227 180.19 34.4149 180.581 34.8986 180.581Z" fill="#F48551"/>
<path d="M269.712 210.185C277.911 199.023 273.856 180.087 259.349 174.791C243.772 169.103 221.61 175.455 208.658 181.765C196.084 187.891 172.192 199.98 167.789 217.419C164.028 232.316 175.814 246.221 189.637 247.399C202.703 248.513 208.95 239.283 233.46 229.097C244.673 224.439 261.96 220.737 269.712 210.185Z" fill="#DE1E26"/>
<path d="M208.003 185.372C220.956 179.061 243.117 172.71 258.694 178.398C269.106 182.2 274.132 193.028 273.108 202.966C275.938 192.188 271.041 179.061 259.351 174.793C243.774 169.105 221.613 175.456 208.66 181.767C196.086 187.892 172.194 199.982 167.791 217.421C167.519 218.51 167.326 219.617 167.213 220.733C171.808 203.451 195.5 191.461 208.003 185.372Z" fill="#F48551"/>
<path d="M191.255 238.017C198.55 238.017 204.463 232.119 204.463 224.842C204.463 217.566 198.55 211.668 191.255 211.668C183.96 211.668 178.047 217.566 178.047 224.842C178.047 232.119 183.96 238.017 191.255 238.017Z" fill="#282522" stroke="#282522" stroke-width="6" stroke-miterlimit="10"/>
<path d="M182.749 228.1C181.886 225.849 181.953 223.348 182.936 221.147C183.919 218.946 185.737 217.223 187.991 216.357" fill="#282522"/>
<path d="M182.749 228.1C181.886 225.849 181.953 223.348 182.936 221.147C183.919 218.946 185.737 217.223 187.991 216.357" stroke="#282522" stroke-width="4" stroke-miterlimit="10" stroke-linecap="round"/>
<path d="M220.564 224.751C227.859 224.751 233.772 218.852 233.772 211.576C233.772 204.3 227.859 198.402 220.564 198.402C213.269 198.402 207.356 204.3 207.356 211.576C207.356 218.852 213.269 224.751 220.564 224.751Z" fill="#282522" stroke="#282522" stroke-miterlimit="10"/>
<path d="M220.564 224.751C227.859 224.751 233.772 218.852 233.772 211.576C233.772 204.3 227.859 198.402 220.564 198.402C213.269 198.402 207.356 204.3 207.356 211.576C207.356 218.852 213.269 224.751 220.564 224.751Z" fill="#282522" stroke="#282522" stroke-width="6" stroke-miterlimit="10"/>
<path d="M212.057 214.834C211.194 212.583 211.261 210.083 212.244 207.881C213.227 205.68 215.045 203.957 217.3 203.091" fill="#282522"/>
<path d="M212.057 214.834C211.194 212.583 211.261 210.083 212.244 207.881C213.227 205.68 215.045 203.957 217.3 203.091" stroke="#282522" stroke-width="4" stroke-miterlimit="10" stroke-linecap="round"/>
<path d="M249.627 211.485C256.922 211.485 262.836 205.586 262.836 198.31C262.836 191.034 256.922 185.136 249.627 185.136C242.333 185.136 236.419 191.034 236.419 198.31C236.419 205.586 242.333 211.485 249.627 211.485Z" fill="#282522" stroke="#282522" stroke-miterlimit="10"/>
<path d="M249.627 211.485C256.922 211.485 262.836 205.586 262.836 198.31C262.836 191.034 256.922 185.136 249.627 185.136C242.333 185.136 236.419 191.034 236.419 198.31C236.419 205.586 242.333 211.485 249.627 211.485Z" fill="#282522" stroke="#282522" stroke-width="6" stroke-miterlimit="10"/>
<path d="M241.12 201.568C240.257 199.317 240.324 196.817 241.307 194.615C242.29 192.414 244.108 190.691 246.363 189.825" fill="#282522"/>
<path d="M241.12 201.568C240.257 199.317 240.324 196.817 241.307 194.615C242.29 192.414 244.108 190.691 246.363 189.825" stroke="#282522" stroke-width="4" stroke-miterlimit="10" stroke-linecap="round"/>
<path d="M269.712 210.185C277.911 199.023 273.856 180.087 259.349 174.791C243.772 169.103 221.61 175.455 208.658 181.765C196.084 187.891 172.192 199.98 167.789 217.419C164.028 232.316 175.814 246.221 189.637 247.399C202.703 248.513 208.95 239.283 233.46 229.097C244.673 224.439 261.96 220.737 269.712 210.185Z" stroke="#282522" stroke-width="6" stroke-miterlimit="10"/>
<path d="M191.526 235.332C198.82 235.332 204.734 229.434 204.734 222.158C204.734 214.882 198.82 208.983 191.526 208.983C184.231 208.983 178.318 214.882 178.318 222.158C178.318 229.434 184.231 235.332 191.526 235.332Z" fill="#EE4823"/>
<path d="M203.856 217.436C203.053 215.342 201.725 213.488 199.998 212.052C201.678 214.707 202.352 217.874 201.898 220.981C201.444 224.088 199.892 226.931 197.523 228.999C195.153 231.066 192.122 232.221 188.974 232.255C185.826 232.29 182.77 231.203 180.355 229.188C182.104 231.955 184.823 233.973 187.982 234.85C191.141 235.728 194.514 235.402 197.445 233.936C200.376 232.47 202.656 229.969 203.841 226.92C205.026 223.87 205.031 220.49 203.856 217.436Z" fill="#DE1E26"/>
<path d="M191.526 235.332C198.82 235.332 204.734 229.434 204.734 222.158C204.734 214.882 198.82 208.983 191.526 208.983C184.231 208.983 178.318 214.882 178.318 222.158C178.318 229.434 184.231 235.332 191.526 235.332Z" stroke="#282522" stroke-width="6" stroke-miterlimit="10"/>
<path d="M183.018 225.416C182.155 223.165 182.222 220.664 183.205 218.463C184.188 216.261 186.006 214.539 188.261 213.673" stroke="#282522" stroke-width="4" stroke-miterlimit="10" stroke-linecap="round"/>
<path d="M219.835 221.805C227.129 221.805 233.043 215.907 233.043 208.63C233.043 201.354 227.129 195.456 219.835 195.456C212.54 195.456 206.626 201.354 206.626 208.63C206.626 215.907 212.54 221.805 219.835 221.805Z" fill="#EE4823"/>
<path d="M232.166 203.909C231.363 201.815 230.034 199.961 228.308 198.524C229.988 201.18 230.662 204.347 230.208 207.454C229.754 210.561 228.203 213.405 225.833 215.472C223.463 217.539 220.431 218.694 217.284 218.729C214.136 218.763 211.079 217.675 208.664 215.661C210.414 218.427 213.133 220.444 216.291 221.322C219.45 222.199 222.823 221.873 225.754 220.407C228.685 218.941 230.965 216.441 232.15 213.392C233.335 210.342 233.341 206.962 232.166 203.909Z" fill="#DE1E26"/>
<path d="M219.835 221.805C227.129 221.805 233.043 215.907 233.043 208.63C233.043 201.354 227.129 195.456 219.835 195.456C212.54 195.456 206.626 201.354 206.626 208.63C206.626 215.907 212.54 221.805 219.835 221.805Z" stroke="#282522" stroke-width="6" stroke-miterlimit="10"/>
<path d="M211.328 211.888C210.464 209.637 210.531 207.136 211.514 204.935C212.497 202.734 214.315 201.011 216.57 200.145" stroke="#282522" stroke-width="4" stroke-miterlimit="10" stroke-linecap="round"/>
<path d="M209.341 159.472L190.426 167.006C188.535 167.759 187.614 169.899 188.37 171.786C189.125 173.672 191.27 174.591 193.162 173.838L212.076 166.303C213.968 165.55 214.889 163.41 214.133 161.523C213.378 159.637 211.232 158.718 209.341 159.472Z" fill="#EE4823"/>
<path d="M209.341 159.472L190.426 167.006C188.535 167.759 187.614 169.899 188.37 171.786C189.125 173.672 191.27 174.591 193.162 173.838L212.076 166.303C213.968 165.55 214.889 163.41 214.133 161.523C213.378 159.637 211.232 158.718 209.341 159.472Z" stroke="#282522" stroke-width="6.00205" stroke-miterlimit="10"/>
<path d="M189.006 161.255C188.372 161.508 187.767 161.412 187.579 160.943L188.136 160.721C188.246 160.93 188.499 161.032 188.859 160.889C189.219 160.745 189.363 160.497 189.273 160.271C189.016 159.63 187.5 160.718 187.108 159.74C186.92 159.274 187.246 158.808 187.894 158.549C188.501 158.307 189.037 158.404 189.265 158.84L188.691 159.069C188.601 158.897 188.349 158.807 188.017 158.931C187.713 159.043 187.529 159.257 187.632 159.514C187.872 160.114 189.401 159.07 189.79 160.04C189.948 160.437 189.713 160.973 189.006 161.255Z" fill="#F48551"/>
<path d="M189.936 157.774L192.147 156.892L192.289 157.247L191.446 157.584L192.368 159.883L191.848 160.091L190.926 157.791L190.078 158.129L189.936 157.774Z" fill="#F48551"/>
<path d="M195.887 157.85L194.56 158.382L194.55 159.015L194.007 159.232L194.076 156.12L194.679 155.88L196.88 158.086L196.333 158.304L195.887 157.85ZM194.588 156.525L194.563 157.966L195.599 157.553L194.588 156.525Z" fill="#F48551"/>
<path d="M197.861 154.613C198.613 154.312 199.128 154.528 199.302 154.96C199.372 155.157 199.367 155.374 199.288 155.568C199.208 155.762 199.061 155.92 198.872 156.013L200.097 156.8L199.477 157.048L198.322 156.277L197.925 156.435L198.351 157.497L197.831 157.704L196.766 155.049L197.861 154.613ZM198.004 154.968L197.43 155.197L197.787 156.087L198.36 155.858C198.766 155.695 198.874 155.436 198.77 155.172C198.666 154.909 198.41 154.806 198.004 154.968Z" fill="#F48551"/>
<path d="M199.943 153.782L202.155 152.9L202.297 153.255L201.453 153.592L202.375 155.891L201.855 156.099L200.933 153.799L200.085 154.138L199.943 153.782Z" fill="#F48551"/>
<path d="M143 129.081C123.176 129.081 102.599 131.398 83.5063 136.223C86.824 137.377 90.4283 138.422 94.2664 139.348C110.29 135.973 126.623 134.28 143 134.295C156.966 134.29 170.905 135.517 184.654 137.959C188.112 136.976 191.512 135.801 194.838 134.438C177.794 130.853 160.419 129.058 143 129.081Z" fill="#EF4923"/>
<path d="M143 131.642C158.922 131.631 174.809 133.127 190.448 136.111C191.971 135.575 193.438 135.018 194.837 134.436C177.793 130.852 160.419 129.057 143 129.081C123.176 129.081 102.599 131.398 83.5063 136.223C84.9755 136.734 86.5033 137.222 88.0793 137.689C106.103 133.64 124.524 131.612 143 131.642Z" fill="#F48551"/>
<path d="M143 129.081C123.176 129.081 102.599 131.398 83.5063 136.223C86.824 137.377 90.4283 138.422 94.2664 139.348C110.29 135.973 126.623 134.28 143 134.295C156.966 134.29 170.905 135.517 184.654 137.959C188.112 136.976 191.512 135.801 194.838 134.438C177.794 130.853 160.419 129.058 143 129.081Z" stroke="#282522" stroke-width="6" stroke-miterlimit="10"/>
<path d="M249.925 207.62C257.22 207.62 263.133 201.722 263.133 194.446C263.133 187.169 257.22 181.271 249.925 181.271C242.63 181.271 236.717 187.169 236.717 194.446C236.717 201.722 242.63 207.62 249.925 207.62Z" fill="#EE4823"/>
<path d="M262.255 189.724C261.452 187.63 260.123 185.776 258.397 184.339C260.077 186.995 260.751 190.162 260.297 193.269C259.844 196.376 258.292 199.22 255.922 201.287C253.553 203.354 250.521 204.509 247.373 204.544C244.225 204.578 241.168 203.491 238.753 201.476C240.503 204.242 243.222 206.26 246.38 207.138C249.539 208.016 252.912 207.69 255.844 206.224C258.775 204.758 261.055 202.257 262.24 199.207C263.425 196.158 263.43 192.777 262.255 189.724Z" fill="#DE1E26"/>
<path d="M249.925 207.62C257.22 207.62 263.133 201.722 263.133 194.446C263.133 187.169 257.22 181.271 249.925 181.271C242.63 181.271 236.717 187.169 236.717 194.446C236.717 201.722 242.63 207.62 249.925 207.62Z" stroke="#282522" stroke-width="6" stroke-miterlimit="10"/>
<path d="M241.418 197.703C240.555 195.452 240.622 192.952 241.605 190.751C242.588 188.549 244.406 186.827 246.661 185.961" stroke="#282522" stroke-width="4" stroke-miterlimit="10" stroke-linecap="round"/>
<path d="M138.477 127.96H134.381V79.1807C134.379 77.0361 133.524 74.98 132.003 73.4635C130.483 71.9471 128.422 71.0941 126.272 71.0917H49.4753C46.2382 71.0917 43.1337 69.809 40.8447 67.5259C38.5557 65.2427 37.2698 62.1461 37.2698 58.9173C37.2698 55.6884 38.5557 52.5918 40.8447 50.3086C43.1337 48.0255 46.2382 46.7428 49.4753 46.7428H212.284C214.434 46.7428 216.497 45.8906 218.018 44.3736C219.539 42.8566 220.393 40.7991 220.393 38.6538C220.393 36.5084 219.539 34.451 218.018 32.934C216.497 31.417 214.434 30.5648 212.284 30.5648H146.546C143.31 30.5611 140.208 29.2772 137.919 26.9949C135.631 24.7125 134.344 21.6181 134.34 18.3903V0H138.436V18.3903C138.439 20.5349 139.294 22.5909 140.814 24.1074C142.335 25.6239 144.396 26.4769 146.546 26.4794H212.284C215.521 26.4794 218.625 27.762 220.914 30.0452C223.203 32.3283 224.489 35.4249 224.489 38.6538C224.489 41.8827 223.203 44.9793 220.914 47.2624C218.625 49.5456 215.521 50.8282 212.284 50.8282H49.4753C47.3244 50.8282 45.2617 51.6805 43.7409 53.1975C42.22 54.7144 41.3656 56.7719 41.3656 58.9173C41.3656 61.0626 42.22 63.1201 43.7409 64.6371C45.2617 66.1541 47.3244 67.0063 49.4753 67.0063H126.272C129.508 67.0099 132.61 68.2937 134.898 70.5761C137.186 72.8584 138.474 75.953 138.477 79.1807V127.96Z" fill="#282522"/>
<path d="M144.396 100.087H128.118V104.47H144.396V100.087Z" fill="#282522"/>
<path d="M147.076 104.22H125.438V108.602H147.076V104.22Z" fill="#302E2C"/>
<path d="M144.396 108.352H128.118V112.734H144.396V108.352Z" fill="#282522"/>
<path d="M147.076 112.484H125.438V116.867H147.076V112.484Z" fill="#302E2C"/>
<path d="M144.396 116.616H128.118V120.999H144.396V116.616Z" fill="#282522"/>
<path d="M144.396 124.201H128.118V128.583H144.396V124.201Z" fill="#282522"/>
<path d="M147.076 120.748H125.438V125.131H147.076V120.748Z" fill="#302E2C"/>
<path d="M64.678 170.392L62.6654 166.71C62.6347 166.649 62.5876 166.598 62.5295 166.562C62.4713 166.526 62.4044 166.507 62.3361 166.507C62.2677 166.507 62.2008 166.526 62.1426 166.562C62.0845 166.598 62.0374 166.649 62.0067 166.71L59.9937 170.392C59.9595 170.453 59.9411 170.521 59.9402 170.59C59.9394 170.659 59.956 170.728 59.9887 170.789C60.0214 170.85 60.069 170.902 60.1271 170.94C60.1853 170.977 60.2521 171 60.3213 171.005H64.3831C64.4499 170.996 64.5133 170.97 64.5677 170.93C64.6221 170.891 64.6658 170.838 64.6949 170.778C64.7241 170.717 64.7378 170.65 64.7349 170.583C64.7319 170.516 64.7124 170.45 64.678 170.392Z" fill="#F48551"/>
<path d="M59.9944 243.751L62.0071 247.434C62.0378 247.495 62.0848 247.546 62.143 247.582C62.2011 247.618 62.2681 247.637 62.3364 247.637C62.4047 247.637 62.4717 247.618 62.5298 247.582C62.588 247.546 62.635 247.495 62.6657 247.434L64.6788 243.751C64.713 243.691 64.7314 243.623 64.7322 243.554C64.7329 243.484 64.7161 243.416 64.6832 243.354C64.6502 243.293 64.6024 243.241 64.544 243.204C64.4855 243.166 64.4185 243.144 64.3491 243.139H60.2869C60.2206 243.149 60.1579 243.175 60.1042 243.215C60.0504 243.255 60.0073 243.308 59.9785 243.368C59.9497 243.428 59.9361 243.495 59.9388 243.562C59.9416 243.629 59.9607 243.694 59.9944 243.751Z" fill="#F48551"/>
<path d="M99.1122 209.409L102.804 207.401C102.865 207.37 102.916 207.324 102.952 207.266C102.988 207.208 103.007 207.141 103.007 207.073C103.007 207.004 102.988 206.938 102.952 206.88C102.916 206.822 102.865 206.775 102.804 206.744L99.1122 204.737C99.0518 204.702 98.9836 204.684 98.9142 204.683C98.8447 204.682 98.7761 204.699 98.7148 204.731C98.6535 204.764 98.6015 204.811 98.5635 204.87C98.5256 204.928 98.503 204.994 98.4978 205.063V209.115C98.5074 209.182 98.5333 209.245 98.5731 209.299C98.613 209.353 98.6656 209.397 98.7264 209.426C98.7871 209.455 98.8541 209.468 98.9214 209.465C98.9887 209.462 99.0542 209.443 99.1122 209.409Z" fill="#F48551"/>
<path d="M25.5643 204.736L21.8719 206.744C21.8109 206.774 21.7596 206.821 21.7238 206.879C21.6879 206.937 21.6689 207.004 21.6689 207.072C21.6689 207.14 21.6879 207.207 21.7238 207.265C21.7596 207.323 21.8109 207.37 21.8719 207.401L25.5643 209.409C25.6249 209.443 25.6931 209.461 25.7627 209.462C25.8323 209.463 25.901 209.446 25.9623 209.413C26.0236 209.38 26.0756 209.332 26.1134 209.274C26.1513 209.216 26.1737 209.149 26.1787 209.08V205.028C26.1689 204.962 26.1429 204.899 26.103 204.845C26.063 204.791 26.0104 204.748 25.9496 204.719C25.8889 204.69 25.822 204.676 25.7548 204.679C25.6876 204.682 25.6221 204.702 25.5643 204.736Z" fill="#F48551"/>
<path d="M199.068 196.214C199.068 196.214 207.641 189.729 225.99 184.196" stroke="#F48551" stroke-width="6" stroke-miterlimit="10" stroke-linecap="round"/>
<path d="M123.413 200.944H128.184C128.528 200.948 128.869 200.884 129.188 200.756C129.507 200.628 129.797 200.437 130.042 200.196C130.286 199.955 130.481 199.668 130.613 199.352C130.746 199.035 130.814 198.696 130.814 198.353C130.814 198.01 130.746 197.67 130.613 197.354C130.481 197.037 130.286 196.75 130.042 196.509C129.797 196.268 129.507 196.078 129.188 195.95C128.869 195.822 128.528 195.758 128.184 195.762L126.838 195.744C126.652 195.748 126.468 195.714 126.295 195.646C126.122 195.577 125.965 195.475 125.832 195.346C125.699 195.216 125.594 195.061 125.522 194.891C125.45 194.72 125.412 194.536 125.412 194.351C125.412 194.166 125.448 193.982 125.52 193.811C125.591 193.64 125.696 193.485 125.828 193.355C125.961 193.225 126.118 193.122 126.29 193.053C126.462 192.984 126.647 192.95 126.833 192.953H131.594V193.753H126.835C126.675 193.753 126.522 193.816 126.408 193.929C126.295 194.042 126.232 194.195 126.232 194.355C126.232 194.514 126.295 194.667 126.408 194.78C126.522 194.893 126.675 194.957 126.835 194.957L128.182 194.95C128.63 194.95 129.074 195.038 129.488 195.209C129.902 195.38 130.278 195.631 130.595 195.947C130.912 196.263 131.163 196.638 131.335 197.051C131.506 197.464 131.594 197.907 131.594 198.354C131.594 198.801 131.506 199.243 131.335 199.656C131.163 200.069 130.912 200.444 130.595 200.76C130.278 201.077 129.902 201.327 129.488 201.498C129.074 201.669 128.63 201.757 128.182 201.757L123.415 201.762L123.413 200.944Z" fill="#F48551"/>
<path d="M136.028 201.749C135.274 201.749 134.552 201.452 134.018 200.921C133.485 200.391 133.184 199.671 133.182 198.92V193.779C133.184 193.028 133.485 192.308 134.019 191.778C134.552 191.248 135.275 190.951 136.028 190.952H141.144V191.755H136.028C135.49 191.751 134.973 191.961 134.59 192.337C134.207 192.713 133.989 193.226 133.984 193.762V198.921C133.985 199.461 134.201 199.978 134.584 200.359C134.967 200.741 135.486 200.955 136.028 200.955H141.12V201.753L136.028 201.749ZM123.413 199.747V198.952L128.173 198.948C128.253 198.95 128.332 198.936 128.406 198.907C128.48 198.878 128.548 198.835 128.605 198.78C128.662 198.724 128.707 198.658 128.738 198.585C128.769 198.511 128.785 198.433 128.785 198.353C128.785 198.274 128.769 198.195 128.738 198.122C128.707 198.049 128.662 197.983 128.605 197.927C128.548 197.872 128.48 197.828 128.406 197.8C128.332 197.771 128.253 197.757 128.173 197.759L126.836 197.757C126.385 197.762 125.938 197.677 125.519 197.509C125.101 197.34 124.721 197.09 124.4 196.773C124.079 196.457 123.824 196.08 123.651 195.665C123.477 195.25 123.387 194.804 123.387 194.354C123.387 193.904 123.477 193.459 123.651 193.043C123.824 192.628 124.079 192.251 124.4 191.935C124.721 191.619 125.101 191.369 125.519 191.2C125.938 191.031 126.385 190.947 126.836 190.952H131.595V191.758H126.834C126.145 191.758 125.484 192.031 124.996 192.517C124.509 193.003 124.235 193.663 124.235 194.35C124.235 195.037 124.509 195.697 124.996 196.183C125.484 196.669 126.145 196.942 126.834 196.942L128.18 196.956C128.364 196.956 128.546 196.992 128.716 197.062C128.886 197.132 129.04 197.234 129.17 197.363C129.3 197.493 129.403 197.646 129.474 197.815C129.544 197.984 129.581 198.166 129.581 198.349C129.581 198.532 129.545 198.714 129.475 198.883C129.405 199.052 129.303 199.206 129.173 199.336C129.043 199.466 128.889 199.569 128.72 199.639C128.55 199.709 128.369 199.746 128.185 199.746L123.413 199.747Z" fill="#F48551"/>
<path d="M145.422 201.749C144.667 201.751 143.943 201.454 143.407 200.924C142.871 200.393 142.569 199.673 142.565 198.92V193.779C142.567 193.028 142.868 192.308 143.401 191.778C143.935 191.248 144.657 190.951 145.41 190.952H150.366V191.754H145.422C144.884 191.754 144.367 191.968 143.986 192.347C143.606 192.727 143.391 193.242 143.39 193.779V198.92C143.391 199.458 143.606 199.974 143.988 200.355C144.369 200.735 144.887 200.949 145.427 200.95H149.559V195.748H146.585V194.95H150.365V201.752L145.422 201.749ZM136.028 199.744C135.808 199.744 135.597 199.658 135.441 199.503C135.286 199.349 135.198 199.139 135.197 198.92V196.949H139.969V197.75H135.992L135.997 198.164C135.997 198.268 136.017 198.371 136.057 198.467C136.097 198.563 136.155 198.65 136.229 198.723C136.303 198.796 136.391 198.854 136.487 198.892C136.584 198.931 136.687 198.951 136.791 198.95H141.121V199.741L136.028 199.744ZM135.197 195.748V193.78C135.197 193.56 135.284 193.35 135.44 193.194C135.595 193.039 135.806 192.951 136.026 192.95H141.142V193.756H136.793C136.689 193.754 136.585 193.772 136.489 193.811C136.392 193.849 136.304 193.906 136.23 193.979C136.155 194.051 136.097 194.138 136.056 194.234C136.016 194.33 135.996 194.432 135.996 194.536L135.991 194.95H139.969V195.748H135.197Z" fill="#F48551"/>
<path d="M153.091 201.75L156.192 192.648C156.201 192.626 156.216 192.606 156.236 192.593C156.256 192.579 156.28 192.572 156.304 192.572C156.378 192.591 156.405 192.617 156.417 192.654L158.831 199.766H156.008L156.011 198.783H157.444L156.303 195.401L154.144 201.751L153.091 201.75ZM145.422 199.752C145.201 199.751 144.99 199.663 144.834 199.507C144.678 199.351 144.591 199.139 144.591 198.919V193.779C144.591 193.559 144.679 193.348 144.835 193.193C144.99 193.037 145.202 192.95 145.422 192.95H150.365V193.747H146.182C146.077 193.746 145.973 193.766 145.876 193.806C145.78 193.845 145.692 193.904 145.618 193.978C145.544 194.052 145.486 194.14 145.446 194.237C145.407 194.334 145.387 194.438 145.389 194.542L145.397 198.161C145.397 198.37 145.48 198.57 145.628 198.718C145.776 198.865 145.977 198.948 146.186 198.949H147.554L147.546 197.75H146.589V196.947H148.356V199.752H145.422Z" fill="#F48551"/>
<path d="M150.965 201.75L154.232 192.19C154.391 191.771 154.673 191.41 155.042 191.155C155.411 190.899 155.849 190.762 156.298 190.761C156.747 190.76 157.185 190.895 157.555 191.149C157.925 191.403 158.209 191.763 158.369 192.181L161.611 201.749H156.014V200.949H160.499L157.524 192.206C157.426 191.963 157.257 191.754 157.039 191.606C156.821 191.458 156.565 191.379 156.301 191.377C156.042 191.377 155.788 191.453 155.572 191.596C155.356 191.74 155.188 191.944 155.088 192.183L151.821 201.749L150.965 201.75Z" fill="#F48551"/>
</svg>
