<svg width="139" height="19" viewBox="0 0 139 19" fill="none" xmlns="http://www.w3.org/2000/svg">
<path d="M13.8719 6.11999C13.4399 5.28799 12.8399 4.66399 12.0719 4.24799C11.3039 3.81599 10.4159 3.59999 9.40794 3.59999C8.30394 3.59999 7.31994 3.84799 6.45594 4.34399C5.59194 4.83999 4.91194 5.54399 4.41594 6.45599C3.93594 7.36799 3.69594 8.42399 3.69594 9.62399C3.69594 10.824 3.93594 11.888 4.41594 12.816C4.91194 13.728 5.59194 14.432 6.45594 14.928C7.31994 15.424 8.30394 15.672 9.40794 15.672C10.8959 15.672 12.1039 15.256 13.0319 14.424C13.9599 13.592 14.5279 12.464 14.7359 11.04H8.47194V8.85599H17.6639V10.992C17.4879 12.288 17.0239 13.48 16.2719 14.568C15.5359 15.656 14.5679 16.528 13.3679 17.184C12.1839 17.824 10.8639 18.144 9.40794 18.144C7.83994 18.144 6.40794 17.784 5.11194 17.064C3.81594 16.328 2.78394 15.312 2.01594 14.016C1.26394 12.72 0.887939 11.256 0.887939 9.62399C0.887939 7.99199 1.26394 6.52799 2.01594 5.23199C2.78394 3.93599 3.81594 2.92799 5.11194 2.20799C6.42394 1.47199 7.85594 1.10399 9.40794 1.10399C11.1839 1.10399 12.7599 1.54399 14.1359 2.42399C15.5279 3.28799 16.5359 4.51999 17.1599 6.11999H13.8719Z" fill="white"/>
<path d="M19.4504 11.328C19.4504 9.99999 19.7224 8.82399 20.2664 7.79999C20.8264 6.77599 21.5784 5.98399 22.5224 5.42399C23.4824 4.84799 24.5384 4.55999 25.6904 4.55999C26.7304 4.55999 27.6344 4.76799 28.4024 5.18399C29.1864 5.58399 29.8104 6.08799 30.2744 6.69599V4.77599H33.0344V18H30.2744V16.032C29.8104 16.656 29.1784 17.176 28.3784 17.592C27.5784 18.008 26.6664 18.216 25.6424 18.216C24.5064 18.216 23.4664 17.928 22.5224 17.352C21.5784 16.76 20.8264 15.944 20.2664 14.904C19.7224 13.848 19.4504 12.656 19.4504 11.328ZM30.2744 11.376C30.2744 10.464 30.0824 9.67199 29.6984 8.99999C29.3304 8.32799 28.8424 7.81599 28.2344 7.46399C27.6264 7.11199 26.9704 6.93599 26.2664 6.93599C25.5624 6.93599 24.9064 7.11199 24.2984 7.46399C23.6904 7.79999 23.1944 8.30399 22.8104 8.97599C22.4424 9.63199 22.2584 10.416 22.2584 11.328C22.2584 12.24 22.4424 13.04 22.8104 13.728C23.1944 14.416 23.6904 14.944 24.2984 15.312C24.9224 15.664 25.5784 15.84 26.2664 15.84C26.9704 15.84 27.6264 15.664 28.2344 15.312C28.8424 14.96 29.3304 14.448 29.6984 13.776C30.0824 13.088 30.2744 12.288 30.2744 11.376Z" fill="white"/>
<path d="M52.6361 4.55999C53.6761 4.55999 54.6041 4.77599 55.4201 5.20799C56.2521 5.63999 56.9001 6.27999 57.3641 7.12799C57.8441 7.97599 58.0841 8.99999 58.0841 10.2V18H55.3721V10.608C55.3721 9.42399 55.0761 8.51999 54.4841 7.89599C53.8921 7.25599 53.0841 6.93599 52.0601 6.93599C51.0361 6.93599 50.2201 7.25599 49.6121 7.89599C49.0201 8.51999 48.7241 9.42399 48.7241 10.608V18H46.0121V10.608C46.0121 9.42399 45.7161 8.51999 45.1241 7.89599C44.5321 7.25599 43.7241 6.93599 42.7001 6.93599C41.6761 6.93599 40.8601 7.25599 40.2521 7.89599C39.6601 8.51999 39.3641 9.42399 39.3641 10.608V18H36.6281V4.77599H39.3641V6.28799C39.8121 5.74399 40.3801 5.31999 41.0681 5.01599C41.7561 4.71199 42.4921 4.55999 43.2761 4.55999C44.3321 4.55999 45.2761 4.78399 46.1081 5.23199C46.9401 5.67999 47.5801 6.32799 48.0281 7.17599C48.4281 6.37599 49.0521 5.74399 49.9001 5.27999C50.7481 4.79999 51.6601 4.55999 52.6361 4.55999Z" fill="white"/>
<path d="M73.6856 11.064C73.6856 11.56 73.6536 12.008 73.5896 12.408H63.4856C63.5656 13.464 63.9576 14.312 64.6616 14.952C65.3656 15.592 66.2296 15.912 67.2536 15.912C68.7256 15.912 69.7656 15.296 70.3736 14.064H73.3256C72.9256 15.28 72.1976 16.28 71.1416 17.064C70.1016 17.832 68.8056 18.216 67.2536 18.216C65.9896 18.216 64.8536 17.936 63.8456 17.376C62.8536 16.8 62.0696 16 61.4936 14.976C60.9336 13.936 60.6536 12.736 60.6536 11.376C60.6536 10.016 60.9256 8.82399 61.4696 7.79999C62.0296 6.75999 62.8056 5.95999 63.7976 5.39999C64.8056 4.83999 65.9576 4.55999 67.2536 4.55999C68.5016 4.55999 69.6136 4.83199 70.5896 5.37599C71.5656 5.91999 72.3256 6.68799 72.8696 7.67999C73.4136 8.65599 73.6856 9.78399 73.6856 11.064ZM70.8296 10.2C70.8136 9.19199 70.4536 8.38399 69.7496 7.77599C69.0456 7.16799 68.1736 6.86399 67.1336 6.86399C66.1896 6.86399 65.3816 7.16799 64.7096 7.77599C64.0376 8.36799 63.6376 9.17599 63.5096 10.2H70.8296Z" fill="white"/>
<path d="M82.1621 18.168C80.9301 18.168 79.8261 17.968 78.8501 17.568C77.8741 17.168 77.0901 16.576 76.4981 15.792C75.9221 15.008 75.6181 14.064 75.5861 12.96H79.9541C80.0181 13.584 80.2341 14.064 80.6021 14.4C80.9701 14.72 81.4501 14.88 82.0421 14.88C82.6501 14.88 83.1301 14.744 83.4821 14.472C83.8341 14.184 84.0101 13.792 84.0101 13.296C84.0101 12.88 83.8661 12.536 83.5781 12.264C83.3061 11.992 82.9621 11.768 82.5461 11.592C82.1461 11.416 81.5701 11.216 80.8181 10.992C79.7301 10.656 78.8421 10.32 78.1541 9.98399C77.4661 9.64799 76.8741 9.15199 76.3781 8.49599C75.8821 7.83999 75.6341 6.98399 75.6341 5.92799C75.6341 4.35999 76.2021 3.13599 77.3381 2.25599C78.4741 1.35999 79.9541 0.911987 81.7781 0.911987C83.6341 0.911987 85.1301 1.35999 86.2661 2.25599C87.4021 3.13599 88.0101 4.36799 88.0901 5.95199H83.6501C83.6181 5.40799 83.4181 4.98399 83.0501 4.67999C82.6821 4.35999 82.2101 4.19999 81.6341 4.19999C81.1381 4.19999 80.7381 4.33599 80.4341 4.60799C80.1301 4.86399 79.9781 5.23999 79.9781 5.73599C79.9781 6.27999 80.2341 6.70399 80.7461 7.00799C81.2581 7.31199 82.0581 7.63999 83.1461 7.99199C84.2341 8.35999 85.1141 8.71199 85.7861 9.04799C86.4741 9.38399 87.0661 9.87199 87.5621 10.512C88.0581 11.152 88.3061 11.976 88.3061 12.984C88.3061 13.944 88.0581 14.816 87.5621 15.6C87.0821 16.384 86.3781 17.008 85.4501 17.472C84.5221 17.936 83.4261 18.168 82.1621 18.168Z" fill="white"/>
<path d="M98.2957 14.52V18H96.2077C94.7197 18 93.5597 17.64 92.7277 16.92C91.8957 16.184 91.4797 14.992 91.4797 13.344V8.01599H89.8477V4.60799H91.4797V1.34399H95.5837V4.60799H98.2717V8.01599H95.5837V13.392C95.5837 13.792 95.6797 14.08 95.8717 14.256C96.0637 14.432 96.3837 14.52 96.8317 14.52H98.2957Z" fill="white"/>
<path d="M106.678 18.192C105.366 18.192 104.182 17.912 103.126 17.352C102.086 16.792 101.262 15.992 100.654 14.952C100.062 13.912 99.7657 12.696 99.7657 11.304C99.7657 9.92799 100.07 8.71999 100.678 7.67999C101.286 6.62399 102.118 5.81599 103.174 5.25599C104.23 4.69599 105.414 4.41599 106.726 4.41599C108.038 4.41599 109.222 4.69599 110.278 5.25599C111.334 5.81599 112.166 6.62399 112.774 7.67999C113.382 8.71999 113.686 9.92799 113.686 11.304C113.686 12.68 113.374 13.896 112.75 14.952C112.142 15.992 111.302 16.792 110.23 17.352C109.174 17.912 107.99 18.192 106.678 18.192ZM106.678 14.64C107.462 14.64 108.126 14.352 108.67 13.776C109.23 13.2 109.51 12.376 109.51 11.304C109.51 10.232 109.238 9.40799 108.694 8.83199C108.166 8.25599 107.51 7.96799 106.726 7.96799C105.926 7.96799 105.262 8.25599 104.734 8.83199C104.206 9.39199 103.942 10.216 103.942 11.304C103.942 12.376 104.198 13.2 104.71 13.776C105.238 14.352 105.894 14.64 106.678 14.64Z" fill="white"/>
<path d="M119.967 6.83999C120.447 6.10399 121.047 5.52799 121.767 5.11199C122.487 4.67999 123.287 4.46399 124.167 4.46399V8.80799H123.039C122.015 8.80799 121.247 9.03199 120.735 9.47999C120.223 9.91199 119.967 10.68 119.967 11.784V18H115.863V4.60799H119.967V6.83999Z" fill="white"/>
<path d="M138.753 11.088C138.753 11.472 138.729 11.872 138.681 12.288H129.393C129.457 13.12 129.721 13.76 130.185 14.208C130.665 14.64 131.249 14.856 131.937 14.856C132.961 14.856 133.673 14.424 134.073 13.56H138.441C138.217 14.44 137.809 15.232 137.217 15.936C136.641 16.64 135.913 17.192 135.033 17.592C134.153 17.992 133.169 18.192 132.081 18.192C130.769 18.192 129.601 17.912 128.577 17.352C127.553 16.792 126.753 15.992 126.177 14.952C125.601 13.912 125.313 12.696 125.313 11.304C125.313 9.91199 125.593 8.69599 126.153 7.65599C126.729 6.61599 127.529 5.81599 128.553 5.25599C129.577 4.69599 130.753 4.41599 132.081 4.41599C133.377 4.41599 134.529 4.68799 135.537 5.23199C136.545 5.77599 137.329 6.55199 137.889 7.55999C138.465 8.56799 138.753 9.74399 138.753 11.088ZM134.553 10.008C134.553 9.30399 134.313 8.74399 133.833 8.32799C133.353 7.91199 132.753 7.70399 132.033 7.70399C131.345 7.70399 130.761 7.90399 130.281 8.30399C129.817 8.70399 129.529 9.27199 129.417 10.008H134.553Z" fill="white"/>
</svg>
